<?xml version="1.0" encoding="UTF-8" standalone="no" ?>
<!DOCTYPE svg PUBLIC "-//W3C//DTD SVG 1.1//EN" "http://www.w3.org/Graphics/SVG/1.1/DTD/svg11.dtd">
<svg xmlns="http://www.w3.org/2000/svg" xmlns:xlink="http://www.w3.org/1999/xlink" version="1.1" width="122.88" height="116.97" viewBox="0 0 122.88 116.97" xml:space="preserve">
<desc>Created with Fabric.js 5.3.0</desc>
<defs>
</defs>
<g transform="matrix(0.9586217225 0 0 0.9586217225 -193.9556834532 31.866294964)" id="QggIyvMRQvJVvs4nDSK4L"  >
<path style="stroke: rgb(10,60,28); stroke-width: 0; stroke-dasharray: none; stroke-linecap: butt; stroke-dashoffset: 0; stroke-linejoin: miter; stroke-miterlimit: 4; fill: rgb(0,0,0); fill-rule: nonzero; opacity: 1;"  transform=" translate(0, 0)" d="M 0 -58.24176 C 32.14945 -58.24176 58.24176 -32.14945 58.24176 0 C 58.24176 32.14945 32.14945 58.24176 0 58.24176 C -32.14945 58.24176 -58.24176 32.14945 -58.24176 0 C -58.24176 -32.14945 -32.14945 -58.24176 0 -58.24176 z" stroke-linecap="round" />
</g>
<g transform="matrix(1 0 0 1 266.7860933816 -87.364437123)" id="4uLiuPWJsOooaMcX5f0iK"  >
<path style="stroke: rgb(134,110,19); stroke-width: 0; stroke-dasharray: none; stroke-linecap: butt; stroke-dashoffset: 0; stroke-linejoin: miter; stroke-miterlimit: 4; fill: rgb(0,0,0); fill-rule: nonzero; opacity: 1;"  transform=" translate(-30.112274421, -38.2494614613)" d="M 20.18826 19.98164 C 12.57128 17.58815 6.19106 19.25413 1.6805200000000013 23.269959999999998 C 2.7889100000000013 23.791489999999996 3.609390000000001 24.777139999999996 3.9212400000000014 25.961729999999996 C 6.831260000000001 37.041639999999994 9.01378 32.2692 10.068660000000001 36.33596 C 10.90694 39.22067 11.39545 42.19568 11.523670000000001 45.196979999999996 C 11.654430000000001 45.14572 11.788030000000001 45.102 11.923800000000002 45.06603 C 12.990960000000001 44.777919999999995 14.128970000000002 44.9278 15.085150000000002 45.48238 C 16.041320000000002 46.03696 16.736510000000003 46.95034 17.016340000000003 48.0197 C 19.082460000000005 55.78946 19.118830000000003 60.88199 17.31462 64.75232 C 15.728660000000001 67.95334 13.196940000000001 69.94671 9.690360000000002 71.50357 C 10.366940000000001 72.1656 11.072620000000002 72.82034999999999 11.814680000000003 73.46056 C 17.63472 77.62189000000001 22.72726 77.05444 27.448770000000003 74.47907000000001 C 31.209970000000002 76.26146000000001 35.18215000000001 76.96714 39.45261000000001 75.36663 C 45.73098000000001 73.00951 52.12575000000001 63.72654 55.13763000000001 57.9065 C 61.68518000000001 45.320660000000004 63.95499000000001 29.17004 49.27394000000001 21.298430000000003 C 45.26539000000001 19.152290000000004 40.26015000000001 18.519360000000002 33.91630000000001 19.945270000000004 C 32.37368000000001 20.459690000000005 30.77295000000001 20.779840000000004 29.151140000000005 20.898300000000006 C 29.085780000000007 17.985140000000005 29.506210000000006 15.081440000000006 30.395170000000004 12.306460000000007 C 31.486080000000005 8.958690000000006 33.426140000000004 5.950850000000006 36.02606 3.5764000000000067 C 36.66154 3.145160000000007 36.98604 2.382090000000007 36.85582 1.6252300000000066 C 36.7256 0.8683700000000066 36.16472 0.2576300000000067 35.42165 0.06358000000000663 C 34.67859 -0.13046999999999337 33.89071 0.12804000000000665 33.40704 0.7245800000000067 C 30.298530000000003 3.5462100000000065 27.979150000000004 7.129340000000006 26.67762 11.120630000000007 L 26.51029 11.637160000000007 C 22.49446 4.573080000000007 15.62681 0.8919100000000064 4.42323 2.608820000000007 L 0 3.067150000000007 C 3.2374 9.796570000000006 7.21685 16.65695000000001 15.48131 17.668180000000007 C 18.62413 18.053760000000008 22.02886 17.348080000000007 25.66638 15.449290000000007 L 25.47723 16.213170000000005 L 25.52088 16.213170000000005 C 25.313059999999997 17.773270000000004 25.21823 19.346360000000004 25.23715 20.920130000000004 C 23.52533 20.785460000000004 21.83277 20.468410000000002 20.18826 19.974370000000004 z" stroke-linecap="round" />
</g>
<g transform="matrix(1 0 0 1 227.7229040833 -79.3364363992)" id="isBN00oqAg9CV-XcFukaP"  >
<path style="stroke: rgb(43,38,200); stroke-width: 0; stroke-dasharray: none; stroke-linecap: butt; stroke-dashoffset: 0; stroke-linejoin: miter; stroke-miterlimit: 4; fill: rgb(109,132,52); fill-rule: nonzero; opacity: 1;"  transform=" translate(-21.8391687541, -39.367733569)" d="M 5.54359 0 C 15.27761 4.80881 16.73262 10.53427 12.76772 16.83447 C 3.8339499999999997 15.146659999999999 2.6335700000000006 7.3259799999999995 5.543590000000001 0 z M 32.15574 67.14874 L 35.64777 65.65008 L 40.16558 76.08978 C 41.15499 78.38142 37.67024 79.88736 36.68083 77.59572 L 32.1703 67.15602 z M 22.82912 36.05516 C 22.83719 36.0524 22.84525 36.04963 22.85331 36.04687 C 22.85494 36.04963 22.85658 36.0524 22.85822 36.05516 z M 22.85331 36.04687 C 17.80599 27.51234 23.878420000000002 24.55925 29.10022 20.43562 C 31.88318 31.08063 29.48436 33.77154 22.85331 36.04687 z M 23.89855 10.54882 C 26.52485 20.472 24.27686 22.96734 18.07851 25.09893 C 13.39337 17.13274 19.03881 14.382769999999999 23.89855 10.54882 z M 30.60615 63.84587 C 22.71999 67.99992999999999 18.18763 67.89807 10.78163 56.039739999999995 C 19.12612 54.79570999999999 27.1214 51.769279999999995 30.60615 63.84586999999999 z M 24.62606 49.95052 C 17.61291 53.646249999999995 13.546149999999999 53.588049999999996 6.991329999999998 43.01012 C 14.411879999999998 41.90431 21.541439999999998 39.197990000000004 24.62606 49.95052 z M 19.28617 37.6193 C 19.283769999999997 37.611000000000004 19.28137 37.60271 19.278959999999998 37.59443 C 19.286209999999997 37.5906 19.29346 37.58677 19.30072 37.582930000000005 z M 3.63753 31.45733 C 10.215720000000001 30.48332 16.51794 28.08589 19.278959999999998 37.59443 C 13.086589999999998 40.86377 9.450759999999997 40.76579 3.637529999999998 31.457330000000002 z M 14.55011 26.61214 C 8.730070000000001 29.66766 5.39809 29.59491 0 20.87212 C 6.1256 19.95546 12.01111 17.7293 14.55011 26.61214 z M 34.19275 62.28173 C 27.805249999999997 51.471000000000004 35.625679999999996 48.262710000000006 42.224149999999995 43.01012 C 45.81074999999999 56.51262 42.624539999999996 59.34989 34.19275 62.259910000000005 z M 35.21853 30.80986 C 38.3759 42.81369 35.68414 45.84012 28.190830000000002 48.40821 C 22.487190000000002 38.812419999999996 29.325740000000003 35.451339999999995 35.21853 30.809859999999997 z" stroke-linecap="round" />
</g>
<g transform="matrix(1 0 0 1 -176.8976379746 32.1539644091)" id="es7A0Yj2Ro7gioTpAJgKZ"  >
<path style="stroke: rgb(134,110,19); stroke-width: 0; stroke-dasharray: none; stroke-linecap: butt; stroke-dashoffset: 0; stroke-linejoin: miter; stroke-miterlimit: 4; fill: rgb(109,132,52); fill-rule: nonzero; opacity: 1;"  transform=" translate(-30.112274421, -38.2494602754)" d="M 20.18826 19.98164 C 12.57128 17.58815 6.19106 19.25413 1.6805200000000013 23.269959999999998 C 2.7889100000000013 23.791489999999996 3.609390000000001 24.777139999999996 3.9212400000000014 25.961729999999996 C 6.831260000000001 37.041639999999994 9.01378 32.2692 10.068660000000001 36.33596 C 10.90694 39.22067 11.39545 42.19568 11.523670000000001 45.196979999999996 C 11.654430000000001 45.14572 11.788030000000001 45.102 11.923800000000002 45.06603 C 12.990960000000001 44.777919999999995 14.128970000000002 44.9278 15.085150000000002 45.48238 C 16.041320000000002 46.03696 16.736510000000003 46.95034 17.016340000000003 48.0197 C 19.082460000000005 55.78946 19.118830000000003 60.88199 17.31462 64.75232 C 15.728660000000001 67.95334 13.196940000000001 69.94671 9.690360000000002 71.50357 C 10.366940000000001 72.1656 11.072620000000002 72.82034999999999 11.814680000000003 73.46056 C 17.63472 77.62189000000001 22.72726 77.05444 27.448770000000003 74.47907000000001 C 31.209970000000002 76.26146000000001 35.18215000000001 76.96714 39.45261000000001 75.36663 C 45.73098000000001 73.00951 52.12575000000001 63.72654 55.13763000000001 57.9065 C 61.68518000000001 45.320660000000004 63.95499000000001 29.17004 49.27394000000001 21.298430000000003 C 45.26539000000001 19.152290000000004 40.26015000000001 18.519360000000002 33.91630000000001 19.945270000000004 C 32.37368000000001 20.459690000000005 30.77295000000001 20.779840000000004 29.151140000000005 20.898300000000006 C 29.085780000000007 17.985140000000005 29.506210000000006 15.081440000000006 30.395170000000004 12.306460000000007 C 31.486080000000005 8.958690000000006 33.426140000000004 5.950850000000006 36.02606 3.5764000000000067 C 36.66154 3.145160000000007 36.98604 2.382090000000007 36.85582 1.6252300000000066 C 36.7256 0.8683700000000066 36.16472 0.2576300000000067 35.42165 0.06358000000000663 C 34.67859 -0.13046999999999337 33.89071 0.12804000000000665 33.40704 0.7245800000000067 C 30.298530000000003 3.5462100000000065 27.979150000000004 7.129340000000006 26.67762 11.120630000000007 L 26.51029 11.637160000000007 C 22.49446 4.573080000000007 15.62681 0.8919100000000064 4.42323 2.608820000000007 L 0 3.067150000000007 C 3.2374 9.796570000000006 7.21685 16.65695000000001 15.48131 17.668180000000007 C 18.62413 18.053760000000008 22.02886 17.348080000000007 25.66638 15.449290000000007 L 25.47723 16.213170000000005 L 25.52088 16.213170000000005 C 25.313059999999997 17.773270000000004 25.21823 19.346360000000004 25.23715 20.920130000000004 C 23.52533 20.785460000000004 21.83277 20.468410000000002 20.18826 19.974370000000004 z" stroke-linecap="round" />
</g>
<g transform="matrix(1 0 0 1 -215.9608272728 40.1819651329)" id="6fTBg1nrUzHJRl3dDvEyM"  >
<path style="stroke: rgb(43,38,200); stroke-width: 0; stroke-dasharray: none; stroke-linecap: butt; stroke-dashoffset: 0; stroke-linejoin: miter; stroke-miterlimit: 4; fill: rgb(232,232,226); fill-rule: nonzero; opacity: 1;"  transform=" translate(-21.8391687541, -39.367733569)" d="M 5.54359 0 C 15.27761 4.80881 16.73262 10.53427 12.76772 16.83447 C 3.8339499999999997 15.146659999999999 2.6335700000000006 7.3259799999999995 5.543590000000001 0 z M 32.15574 67.14874 L 35.64777 65.65008 L 40.16558 76.08978 C 41.15499 78.38142 37.67024 79.88736 36.68083 77.59572 L 32.1703 67.15602 z M 22.82912 36.05516 C 22.83719 36.0524 22.84525 36.04963 22.85331 36.04687 C 22.85494 36.04963 22.85658 36.0524 22.85822 36.05516 z M 22.85331 36.04687 C 17.80599 27.51234 23.878420000000002 24.55925 29.10022 20.43562 C 31.88318 31.08063 29.48436 33.77154 22.85331 36.04687 z M 23.89855 10.54882 C 26.52485 20.472 24.27686 22.96734 18.07851 25.09893 C 13.39337 17.13274 19.03881 14.382769999999999 23.89855 10.54882 z M 30.60615 63.84587 C 22.71999 67.99992999999999 18.18763 67.89807 10.78163 56.039739999999995 C 19.12612 54.79570999999999 27.1214 51.769279999999995 30.60615 63.84586999999999 z M 24.62606 49.95052 C 17.61291 53.646249999999995 13.546149999999999 53.588049999999996 6.991329999999998 43.01012 C 14.411879999999998 41.90431 21.541439999999998 39.197990000000004 24.62606 49.95052 z M 19.28617 37.6193 C 19.283769999999997 37.611000000000004 19.28137 37.60271 19.278959999999998 37.59443 C 19.286209999999997 37.5906 19.29346 37.58677 19.30072 37.582930000000005 z M 3.63753 31.45733 C 10.215720000000001 30.48332 16.51794 28.08589 19.278959999999998 37.59443 C 13.086589999999998 40.86377 9.450759999999997 40.76579 3.637529999999998 31.457330000000002 z M 14.55011 26.61214 C 8.730070000000001 29.66766 5.39809 29.59491 0 20.87212 C 6.1256 19.95546 12.01111 17.7293 14.55011 26.61214 z M 34.19275 62.28173 C 27.805249999999997 51.471000000000004 35.625679999999996 48.262710000000006 42.224149999999995 43.01012 C 45.81074999999999 56.51262 42.624539999999996 59.34989 34.19275 62.259910000000005 z M 35.21853 30.80986 C 38.3759 42.81369 35.68414 45.84012 28.190830000000002 48.40821 C 22.487190000000002 38.812419999999996 29.325740000000003 35.451339999999995 35.21853 30.809859999999997 z" stroke-linecap="round" />
</g>
<g transform="matrix(0.9586217225 0 0 0.9586217225 -142.7109433962 203.7680162492)" id="bFf4HCKDMiaQs_LIzPkf5"  >
<path style="stroke: rgb(10,60,28); stroke-width: 0; stroke-dasharray: none; stroke-linecap: butt; stroke-dashoffset: 0; stroke-linejoin: miter; stroke-miterlimit: 4; fill: rgb(0,0,0); fill-rule: nonzero; opacity: 1;"  transform=" translate(0, 0)" d="M 0 -58.24176 C 32.14945 -58.24176 58.24176 -32.14945 58.24176 0 C 58.24176 32.14945 32.14945 58.24176 0 58.24176 C -32.14945 58.24176 -58.24176 32.14945 -58.24176 0 C -58.24176 -32.14945 -32.14945 -58.24176 0 -58.24176 z" stroke-linecap="round" />
</g>
<g transform="matrix(1 0 0 1 -125.2463938526 203.7680162492)" id="3_DSNhksfk5VYe-ti9Ntb"  >
<path style="stroke: rgb(134,110,19); stroke-width: 0; stroke-dasharray: none; stroke-linecap: butt; stroke-dashoffset: 0; stroke-linejoin: miter; stroke-miterlimit: 4; fill: rgb(232,232,226); fill-rule: nonzero; opacity: 1;"  transform=" translate(-30.112274421, -38.2494602754)" d="M 20.18826 19.98164 C 12.57128 17.58815 6.19106 19.25413 1.6805200000000013 23.269959999999998 C 2.7889100000000013 23.791489999999996 3.609390000000001 24.777139999999996 3.9212400000000014 25.961729999999996 C 6.831260000000001 37.041639999999994 9.01378 32.2692 10.068660000000001 36.33596 C 10.90694 39.22067 11.39545 42.19568 11.523670000000001 45.196979999999996 C 11.654430000000001 45.14572 11.788030000000001 45.102 11.923800000000002 45.06603 C 12.990960000000001 44.777919999999995 14.128970000000002 44.9278 15.085150000000002 45.48238 C 16.041320000000002 46.03696 16.736510000000003 46.95034 17.016340000000003 48.0197 C 19.082460000000005 55.78946 19.118830000000003 60.88199 17.31462 64.75232 C 15.728660000000001 67.95334 13.196940000000001 69.94671 9.690360000000002 71.50357 C 10.366940000000001 72.1656 11.072620000000002 72.82034999999999 11.814680000000003 73.46056 C 17.63472 77.62189000000001 22.72726 77.05444 27.448770000000003 74.47907000000001 C 31.209970000000002 76.26146000000001 35.18215000000001 76.96714 39.45261000000001 75.36663 C 45.73098000000001 73.00951 52.12575000000001 63.72654 55.13763000000001 57.9065 C 61.68518000000001 45.320660000000004 63.95499000000001 29.17004 49.27394000000001 21.298430000000003 C 45.26539000000001 19.152290000000004 40.26015000000001 18.519360000000002 33.91630000000001 19.945270000000004 C 32.37368000000001 20.459690000000005 30.77295000000001 20.779840000000004 29.151140000000005 20.898300000000006 C 29.085780000000007 17.985140000000005 29.506210000000006 15.081440000000006 30.395170000000004 12.306460000000007 C 31.486080000000005 8.958690000000006 33.426140000000004 5.950850000000006 36.02606 3.5764000000000067 C 36.66154 3.145160000000007 36.98604 2.382090000000007 36.85582 1.6252300000000066 C 36.7256 0.8683700000000066 36.16472 0.2576300000000067 35.42165 0.06358000000000663 C 34.67859 -0.13046999999999337 33.89071 0.12804000000000665 33.40704 0.7245800000000067 C 30.298530000000003 3.5462100000000065 27.979150000000004 7.129340000000006 26.67762 11.120630000000007 L 26.51029 11.637160000000007 C 22.49446 4.573080000000007 15.62681 0.8919100000000064 4.42323 2.608820000000007 L 0 3.067150000000007 C 3.2374 9.796570000000006 7.21685 16.65695000000001 15.48131 17.668180000000007 C 18.62413 18.053760000000008 22.02886 17.348080000000007 25.66638 15.449290000000007 L 25.47723 16.213170000000005 L 25.52088 16.213170000000005 C 25.313059999999997 17.773270000000004 25.21823 19.346360000000004 25.23715 20.920130000000004 C 23.52533 20.785460000000004 21.83277 20.468410000000002 20.18826 19.974370000000004 z" stroke-linecap="round" />
</g>
<g transform="matrix(1 0 0 1 -164.7160872158 212.0836864181)" id="ueZxlWzPPjcPBMcYQmaoN"  >
<path style="stroke: rgb(43,38,200); stroke-width: 0; stroke-dasharray: none; stroke-linecap: butt; stroke-dashoffset: 0; stroke-linejoin: miter; stroke-miterlimit: 4; fill: rgb(109,132,52); fill-rule: nonzero; opacity: 1;"  transform=" translate(-21.8391687541, -39.367733569)" d="M 5.54359 0 C 15.27761 4.80881 16.73262 10.53427 12.76772 16.83447 C 3.8339499999999997 15.146659999999999 2.6335700000000006 7.3259799999999995 5.543590000000001 0 z M 32.15574 67.14874 L 35.64777 65.65008 L 40.16558 76.08978 C 41.15499 78.38142 37.67024 79.88736 36.68083 77.59572 L 32.1703 67.15602 z M 22.82912 36.05516 C 22.83719 36.0524 22.84525 36.04963 22.85331 36.04687 C 22.85494 36.04963 22.85658 36.0524 22.85822 36.05516 z M 22.85331 36.04687 C 17.80599 27.51234 23.878420000000002 24.55925 29.10022 20.43562 C 31.88318 31.08063 29.48436 33.77154 22.85331 36.04687 z M 23.89855 10.54882 C 26.52485 20.472 24.27686 22.96734 18.07851 25.09893 C 13.39337 17.13274 19.03881 14.382769999999999 23.89855 10.54882 z M 30.60615 63.84587 C 22.71999 67.99992999999999 18.18763 67.89807 10.78163 56.039739999999995 C 19.12612 54.79570999999999 27.1214 51.769279999999995 30.60615 63.84586999999999 z M 24.62606 49.95052 C 17.61291 53.646249999999995 13.546149999999999 53.588049999999996 6.991329999999998 43.01012 C 14.411879999999998 41.90431 21.541439999999998 39.197990000000004 24.62606 49.95052 z M 19.28617 37.6193 C 19.283769999999997 37.611000000000004 19.28137 37.60271 19.278959999999998 37.59443 C 19.286209999999997 37.5906 19.29346 37.58677 19.30072 37.582930000000005 z M 3.63753 31.45733 C 10.215720000000001 30.48332 16.51794 28.08589 19.278959999999998 37.59443 C 13.086589999999998 40.86377 9.450759999999997 40.76579 3.637529999999998 31.457330000000002 z M 14.55011 26.61214 C 8.730070000000001 29.66766 5.39809 29.59491 0 20.87212 C 6.1256 19.95546 12.01111 17.7293 14.55011 26.61214 z M 34.19275 62.28173 C 27.805249999999997 51.471000000000004 35.625679999999996 48.262710000000006 42.224149999999995 43.01012 C 45.81074999999999 56.51262 42.624539999999996 59.34989 34.19275 62.259910000000005 z M 35.21853 30.80986 C 38.3759 42.81369 35.68414 45.84012 28.190830000000002 48.40821 C 22.487190000000002 38.812419999999996 29.325740000000003 35.451339999999995 35.21853 30.809859999999997 z" stroke-linecap="round" />
</g>
<g transform="matrix(1.107894589 0 0 1.107894589 227.7229040833 49.3942830622)" id="xCZPMX52wHsVj4PZ3H5B-"  >
<path style="stroke: rgb(134,110,19); stroke-width: 0; stroke-dasharray: none; stroke-linecap: butt; stroke-dashoffset: 0; stroke-linejoin: miter; stroke-miterlimit: 4; fill: rgb(109,132,52); fill-rule: nonzero; opacity: 1;"  transform=" translate(-30.112274421, -38.2494602754)" d="M 20.18826 19.98164 C 12.57128 17.58815 6.19106 19.25413 1.6805200000000013 23.269959999999998 C 2.7889100000000013 23.791489999999996 3.609390000000001 24.777139999999996 3.9212400000000014 25.961729999999996 C 6.831260000000001 37.041639999999994 9.01378 32.2692 10.068660000000001 36.33596 C 10.90694 39.22067 11.39545 42.19568 11.523670000000001 45.196979999999996 C 11.654430000000001 45.14572 11.788030000000001 45.102 11.923800000000002 45.06603 C 12.990960000000001 44.777919999999995 14.128970000000002 44.9278 15.085150000000002 45.48238 C 16.041320000000002 46.03696 16.736510000000003 46.95034 17.016340000000003 48.0197 C 19.082460000000005 55.78946 19.118830000000003 60.88199 17.31462 64.75232 C 15.728660000000001 67.95334 13.196940000000001 69.94671 9.690360000000002 71.50357 C 10.366940000000001 72.1656 11.072620000000002 72.82034999999999 11.814680000000003 73.46056 C 17.63472 77.62189000000001 22.72726 77.05444 27.448770000000003 74.47907000000001 C 31.209970000000002 76.26146000000001 35.18215000000001 76.96714 39.45261000000001 75.36663 C 45.73098000000001 73.00951 52.12575000000001 63.72654 55.13763000000001 57.9065 C 61.68518000000001 45.320660000000004 63.95499000000001 29.17004 49.27394000000001 21.298430000000003 C 45.26539000000001 19.152290000000004 40.26015000000001 18.519360000000002 33.91630000000001 19.945270000000004 C 32.37368000000001 20.459690000000005 30.77295000000001 20.779840000000004 29.151140000000005 20.898300000000006 C 29.085780000000007 17.985140000000005 29.506210000000006 15.081440000000006 30.395170000000004 12.306460000000007 C 31.486080000000005 8.958690000000006 33.426140000000004 5.950850000000006 36.02606 3.5764000000000067 C 36.66154 3.145160000000007 36.98604 2.382090000000007 36.85582 1.6252300000000066 C 36.7256 0.8683700000000066 36.16472 0.2576300000000067 35.42165 0.06358000000000663 C 34.67859 -0.13046999999999337 33.89071 0.12804000000000665 33.40704 0.7245800000000067 C 30.298530000000003 3.5462100000000065 27.979150000000004 7.129340000000006 26.67762 11.120630000000007 L 26.51029 11.637160000000007 C 22.49446 4.573080000000007 15.62681 0.8919100000000064 4.42323 2.608820000000007 L 0 3.067150000000007 C 3.2374 9.796570000000006 7.21685 16.65695000000001 15.48131 17.668180000000007 C 18.62413 18.053760000000008 22.02886 17.348080000000007 25.66638 15.449290000000007 L 25.47723 16.213170000000005 L 25.52088 16.213170000000005 C 25.313059999999997 17.773270000000004 25.21823 19.346360000000004 25.23715 20.920130000000004 C 23.52533 20.785460000000004 21.83277 20.468410000000002 20.18826 19.974370000000004 z" stroke-linecap="round" />
</g>
<g transform="matrix(1 0 0 1 -69.8522550278 98.3959681177)" id="thntZQG_mvHMlsxSB_M9a"  >
<path style="stroke: rgb(43,38,200); stroke-width: 0; stroke-dasharray: none; stroke-linecap: butt; stroke-dashoffset: 0; stroke-linejoin: miter; stroke-miterlimit: 4; fill: rgb(0,0,0); fill-rule: nonzero; opacity: 1;"  transform=" translate(-21.8391687541, -39.367733569)" d="M 5.54359 0 C 15.27761 4.80881 16.73262 10.53427 12.76772 16.83447 C 3.8339499999999997 15.146659999999999 2.6335700000000006 7.3259799999999995 5.543590000000001 0 z M 32.15574 67.14874 L 35.64777 65.65008 L 40.16558 76.08978 C 41.15499 78.38142 37.67024 79.88736 36.68083 77.59572 L 32.1703 67.15602 z M 22.82912 36.05516 C 22.83719 36.0524 22.84525 36.04963 22.85331 36.04687 C 22.85494 36.04963 22.85658 36.0524 22.85822 36.05516 z M 22.85331 36.04687 C 17.80599 27.51234 23.878420000000002 24.55925 29.10022 20.43562 C 31.88318 31.08063 29.48436 33.77154 22.85331 36.04687 z M 23.89855 10.54882 C 26.52485 20.472 24.27686 22.96734 18.07851 25.09893 C 13.39337 17.13274 19.03881 14.382769999999999 23.89855 10.54882 z M 30.60615 63.84587 C 22.71999 67.99992999999999 18.18763 67.89807 10.78163 56.039739999999995 C 19.12612 54.79570999999999 27.1214 51.769279999999995 30.60615 63.84586999999999 z M 24.62606 49.95052 C 17.61291 53.646249999999995 13.546149999999999 53.588049999999996 6.991329999999998 43.01012 C 14.411879999999998 41.90431 21.541439999999998 39.197990000000004 24.62606 49.95052 z M 19.28617 37.6193 C 19.283769999999997 37.611000000000004 19.28137 37.60271 19.278959999999998 37.59443 C 19.286209999999997 37.5906 19.29346 37.58677 19.30072 37.582930000000005 z M 3.63753 31.45733 C 10.215720000000001 30.48332 16.51794 28.08589 19.278959999999998 37.59443 C 13.086589999999998 40.86377 9.450759999999997 40.76579 3.637529999999998 31.457330000000002 z M 14.55011 26.61214 C 8.730070000000001 29.66766 5.39809 29.59491 0 20.87212 C 6.1256 19.95546 12.01111 17.7293 14.55011 26.61214 z M 34.19275 62.28173 C 27.805249999999997 51.471000000000004 35.625679999999996 48.262710000000006 42.224149999999995 43.01012 C 45.81074999999999 56.51262 42.624539999999996 59.34989 34.19275 62.259910000000005 z M 35.21853 30.80986 C 38.3759 42.81369 35.68414 45.84012 28.190830000000002 48.40821 C 22.487190000000002 38.812419999999996 29.325740000000003 35.451339999999995 35.21853 30.809859999999997 z" stroke-linecap="round" />
</g>
<g transform="matrix(0.9586217225 0 0 0.9586217225 285.3661656565 201.6318624038)" id="H2T8-Jb77xqnzezg3o8CW"  >
<path style="stroke: rgb(10,60,28); stroke-width: 0; stroke-dasharray: none; stroke-linecap: butt; stroke-dashoffset: 0; stroke-linejoin: miter; stroke-miterlimit: 4; fill: rgb(232,232,226); fill-rule: nonzero; opacity: 1;"  transform=" translate(0, 0)" d="M 0 -58.24176 C 32.14945 -58.24176 58.24176 -32.14945 58.24176 0 C 58.24176 32.14945 32.14945 58.24176 0 58.24176 C -32.14945 58.24176 -58.24176 32.14945 -58.24176 0 C -58.24176 -32.14945 -32.14945 -58.24176 0 -58.24176 z" stroke-linecap="round" />
</g>
<g transform="matrix(1 0 0 1 302.4242111351 201.9195318489)" id="uFj9PqUu0ReT36BxjNNNj"  >
<path style="stroke: rgb(134,110,19); stroke-width: 0; stroke-dasharray: none; stroke-linecap: butt; stroke-dashoffset: 0; stroke-linejoin: miter; stroke-miterlimit: 4; fill: rgb(0,0,0); fill-rule: nonzero; opacity: 1;"  transform=" translate(-30.112274421, -38.2494602754)" d="M 20.18826 19.98164 C 12.57128 17.58815 6.19106 19.25413 1.6805200000000013 23.269959999999998 C 2.7889100000000013 23.791489999999996 3.609390000000001 24.777139999999996 3.9212400000000014 25.961729999999996 C 6.831260000000001 37.041639999999994 9.01378 32.2692 10.068660000000001 36.33596 C 10.90694 39.22067 11.39545 42.19568 11.523670000000001 45.196979999999996 C 11.654430000000001 45.14572 11.788030000000001 45.102 11.923800000000002 45.06603 C 12.990960000000001 44.777919999999995 14.128970000000002 44.9278 15.085150000000002 45.48238 C 16.041320000000002 46.03696 16.736510000000003 46.95034 17.016340000000003 48.0197 C 19.082460000000005 55.78946 19.118830000000003 60.88199 17.31462 64.75232 C 15.728660000000001 67.95334 13.196940000000001 69.94671 9.690360000000002 71.50357 C 10.366940000000001 72.1656 11.072620000000002 72.82034999999999 11.814680000000003 73.46056 C 17.63472 77.62189000000001 22.72726 77.05444 27.448770000000003 74.47907000000001 C 31.209970000000002 76.26146000000001 35.18215000000001 76.96714 39.45261000000001 75.36663 C 45.73098000000001 73.00951 52.12575000000001 63.72654 55.13763000000001 57.9065 C 61.68518000000001 45.320660000000004 63.95499000000001 29.17004 49.27394000000001 21.298430000000003 C 45.26539000000001 19.152290000000004 40.26015000000001 18.519360000000002 33.91630000000001 19.945270000000004 C 32.37368000000001 20.459690000000005 30.77295000000001 20.779840000000004 29.151140000000005 20.898300000000006 C 29.085780000000007 17.985140000000005 29.506210000000006 15.081440000000006 30.395170000000004 12.306460000000007 C 31.486080000000005 8.958690000000006 33.426140000000004 5.950850000000006 36.02606 3.5764000000000067 C 36.66154 3.145160000000007 36.98604 2.382090000000007 36.85582 1.6252300000000066 C 36.7256 0.8683700000000066 36.16472 0.2576300000000067 35.42165 0.06358000000000663 C 34.67859 -0.13046999999999337 33.89071 0.12804000000000665 33.40704 0.7245800000000067 C 30.298530000000003 3.5462100000000065 27.979150000000004 7.129340000000006 26.67762 11.120630000000007 L 26.51029 11.637160000000007 C 22.49446 4.573080000000007 15.62681 0.8919100000000064 4.42323 2.608820000000007 L 0 3.067150000000007 C 3.2374 9.796570000000006 7.21685 16.65695000000001 15.48131 17.668180000000007 C 18.62413 18.053760000000008 22.02886 17.348080000000007 25.66638 15.449290000000007 L 25.47723 16.213170000000005 L 25.52088 16.213170000000005 C 25.313059999999997 17.773270000000004 25.21823 19.346360000000004 25.23715 20.920130000000004 C 23.52533 20.785460000000004 21.83277 20.468410000000002 20.18826 19.974370000000004 z" stroke-linecap="round" />
</g>
<g transform="matrix(1 0 0 1 61.44 58.485)" id="CBFn_U4by07HgkoqB7Wn0"  >
<path style="stroke: rgb(207,243,125); stroke-width: 0; stroke-dasharray: none; stroke-linecap: butt; stroke-dashoffset: 0; stroke-linejoin: miter; stroke-miterlimit: 4; fill: rgb(109,132,52); fill-rule: nonzero; opacity: 1;"  transform=" translate(-48.9837414385, -48.9837414385)" d="M 0 0 L 97.96748 0 L 97.96748 97.96748 L 0 97.96748 z" stroke-linecap="round" />
</g>
<g transform="matrix(1 0 0 1 263.3610218369 209.9475325727)" id="hlePXB6QBBIccbzchgJ7z"  >
<path style="stroke: rgb(43,38,200); stroke-width: 0; stroke-dasharray: none; stroke-linecap: butt; stroke-dashoffset: 0; stroke-linejoin: miter; stroke-miterlimit: 4; fill: rgb(109,132,52); fill-rule: nonzero; opacity: 1;"  transform=" translate(-21.8391687541, -39.367733569)" d="M 5.54359 0 C 15.27761 4.80881 16.73262 10.53427 12.76772 16.83447 C 3.8339499999999997 15.146659999999999 2.6335700000000006 7.3259799999999995 5.543590000000001 0 z M 32.15574 67.14874 L 35.64777 65.65008 L 40.16558 76.08978 C 41.15499 78.38142 37.67024 79.88736 36.68083 77.59572 L 32.1703 67.15602 z M 22.82912 36.05516 C 22.83719 36.0524 22.84525 36.04963 22.85331 36.04687 C 22.85494 36.04963 22.85658 36.0524 22.85822 36.05516 z M 22.85331 36.04687 C 17.80599 27.51234 23.878420000000002 24.55925 29.10022 20.43562 C 31.88318 31.08063 29.48436 33.77154 22.85331 36.04687 z M 23.89855 10.54882 C 26.52485 20.472 24.27686 22.96734 18.07851 25.09893 C 13.39337 17.13274 19.03881 14.382769999999999 23.89855 10.54882 z M 30.60615 63.84587 C 22.71999 67.99992999999999 18.18763 67.89807 10.78163 56.039739999999995 C 19.12612 54.79570999999999 27.1214 51.769279999999995 30.60615 63.84586999999999 z M 24.62606 49.95052 C 17.61291 53.646249999999995 13.546149999999999 53.588049999999996 6.991329999999998 43.01012 C 14.411879999999998 41.90431 21.541439999999998 39.197990000000004 24.62606 49.95052 z M 19.28617 37.6193 C 19.283769999999997 37.611000000000004 19.28137 37.60271 19.278959999999998 37.59443 C 19.286209999999997 37.5906 19.29346 37.58677 19.30072 37.582930000000005 z M 3.63753 31.45733 C 10.215720000000001 30.48332 16.51794 28.08589 19.278959999999998 37.59443 C 13.086589999999998 40.86377 9.450759999999997 40.76579 3.637529999999998 31.457330000000002 z M 14.55011 26.61214 C 8.730070000000001 29.66766 5.39809 29.59491 0 20.87212 C 6.1256 19.95546 12.01111 17.7293 14.55011 26.61214 z M 34.19275 62.28173 C 27.805249999999997 51.471000000000004 35.625679999999996 48.262710000000006 42.224149999999995 43.01012 C 45.81074999999999 56.51262 42.624539999999996 59.34989 34.19275 62.259910000000005 z M 35.21853 30.80986 C 38.3759 42.81369 35.68414 45.84012 28.190830000000002 48.40821 C 22.487190000000002 38.812419999999996 29.325740000000003 35.451339999999995 35.21853 30.809859999999997 z" stroke-linecap="round" />
</g>
<g transform="matrix(1 0 0 1 34.5310121648 43.052195791)" id="ohzjYkLkROFUklhQ4SOCM"  >
<path style="stroke: none; stroke-width: 1; stroke-dasharray: none; stroke-linecap: butt; stroke-dashoffset: 0; stroke-linejoin: miter; stroke-miterlimit: 4; fill: rgb(232,232,226); fill-rule: nonzero; opacity: 1;"  transform=" translate(-21.236, -22.8759612423)" d="M 18.907 27.199 C 14.4 24.947000000000003 13.732 17.463 13.732 17.463 C 13.732 17.463 19.938 15.805000000000001 23.823999999999998 19.007 C 27.714999999999996 22.215000000000003 28.74 28.716 28.74 28.716 C 28.74 28.716 22.186 28.838 18.907 27.199 z" stroke-linecap="round" />
</g>
<g transform="matrix(1 0 0 1 41.7765121648 59.0282345487)" id="t7BvKl8BOosZ6cIu8x6sX"  >
<path style="stroke: none; stroke-width: 1; stroke-dasharray: none; stroke-linecap: butt; stroke-dashoffset: 0; stroke-linejoin: miter; stroke-miterlimit: 4; fill: rgb(232,232,226); fill-rule: nonzero; opacity: 1;"  transform=" translate(-28.4815, -38.852)" d="M 13.732 46.227 C 13.732 38.080999999999996 20.336 31.476999999999997 28.482 31.476999999999997 C 36.628 31.476999999999997 43.231 38.080999999999996 43.231 46.227" stroke-linecap="round" />
</g>
<g transform="matrix(1 0 0 1 89.5580121648 54.1132345487)" id="hV1ZCPCmw2fgmfwEZ9X04"  >
<path style="stroke: none; stroke-width: 1; stroke-dasharray: none; stroke-linecap: butt; stroke-dashoffset: 0; stroke-linejoin: miter; stroke-miterlimit: 4; fill: rgb(232,232,226); fill-rule: nonzero; opacity: 1;"  transform=" translate(-76.263, -33.937)" d="M 81.351 26.562 C 82.708 26.562 83.809 25.46 83.809 24.104 C 83.809 22.747999999999998 82.708 21.646 81.351 21.646 L 71.518 21.646 C 70.162 21.646 69.06 22.748 69.06 24.104 C 69.06 25.461 70.162 26.561999999999998 71.518 26.561999999999998 C 71.518 36.394999999999996 66.258 33.117 66.258 46.227999999999994 L 76.434 46.227999999999994 L 86.268 46.227999999999994 C 86.268 33.116 81.351 36.394 81.351 26.562 z" stroke-linecap="round" />
</g>
<g transform="matrix(1 0 0 1 61.44 45.7896339647)" id="Mhwl2ilrMMreHsVVUiJGg"  >
<path style="stroke: none; stroke-width: 1; stroke-dasharray: none; stroke-linecap: butt; stroke-dashoffset: 0; stroke-linejoin: miter; stroke-miterlimit: 4; fill: rgb(232,232,226); fill-rule: nonzero; opacity: 1;"  transform=" translate(-48.1449878352, -25.613399416)" d="M 39.954 38.033 C 38.314 31.477 36.676 23.283 35.037 18.368000000000002 C 32.899 11.956000000000003 36.676 3.407000000000002 44.87 5.256000000000002 C 51.312 6.713000000000002 56.340999999999994 15.090000000000002 58.047 28.269000000000005 C 58.047 28.269000000000005 51.973 21.644000000000005 49.786 23.284000000000006 C 49.786 23.284000000000006 48.474000000000004 24.536000000000005 51.668 26.331000000000007 C 55.112 28.269000000000005 63.033 35.23400000000001 61.69 42.315000000000005 C 61.69 42.315000000000005 56.977999999999994 37.88700000000001 53.424 36.87800000000001 C 52.449 36.60000000000001 51.033 38.550000000000004 53.062 39.672000000000004 C 54.727999999999994 40.593 57.979 42.95 61.257 46.227000000000004 L 43.231 46.227000000000004" stroke-linecap="round" />
</g>
<g transform="matrix(1 0 0 1 63.2945121648 80.3491016193)" id="IGJ5gKET7tM-X4-Yeov7u"  >
<path style="stroke: none; stroke-width: 1; stroke-dasharray: none; stroke-linecap: butt; stroke-dashoffset: 0; stroke-linejoin: miter; stroke-miterlimit: 4; fill: rgb(232,232,226); fill-rule: nonzero; opacity: 1;"  transform=" translate(-36.2675, -11.4448670706)" d="M 72.535 0 L 67.58574999999999 22.88973 L 4.867139999999992 22.88973 L -7.993605777301127e-15 0 z" stroke-linecap="round" />
</g>
</svg>